<?xml version="1.0" encoding="UTF-8" standalone="no"?>
<svg
   xmlns:dc="http://purl.org/dc/elements/1.1/"
   xmlns:cc="http://creativecommons.org/ns#"
   xmlns:rdf="http://www.w3.org/1999/02/22-rdf-syntax-ns#"
   xmlns:svg="http://www.w3.org/2000/svg"
   xmlns="http://www.w3.org/2000/svg"
   xmlns:sodipodi="http://sodipodi.sourceforge.net/DTD/sodipodi-0.dtd"
   xmlns:inkscape="http://www.inkscape.org/namespaces/inkscape"
   width="24"
   height="24"
   viewBox="0 0 24 24"
   version="1.1"
   id="svg6"
   sodipodi:docname="adult-infectious.svg"
   inkscape:version="0.92.2 5c3e80d, 2017-08-06">
  <metadata
     id="metadata12">
    <rdf:RDF>
      <cc:Work
         rdf:about="">
        <dc:format>image/svg+xml</dc:format>
        <dc:type
           rdf:resource="http://purl.org/dc/dcmitype/StillImage" />
        <dc:title></dc:title>
      </cc:Work>
    </rdf:RDF>
  </metadata>
  <defs
     id="defs10" />
  <sodipodi:namedview
     pagecolor="#ffffff"
     bordercolor="#666666"
     borderopacity="1"
     objecttolerance="10"
     gridtolerance="10"
     guidetolerance="10"
     inkscape:pageopacity="0"
     inkscape:pageshadow="2"
     inkscape:window-width="1438"
     inkscape:window-height="854"
     id="namedview8"
     showgrid="false"
     inkscape:zoom="21.09"
     inkscape:cx="12"
     inkscape:cy="12"
     inkscape:window-x="0"
     inkscape:window-y="0"
     inkscape:window-maximized="0"
     inkscape:current-layer="svg6" />
  <circle
     cx="12"
     cy="4"
     r="2"
     id="circle2" />
  <path
     d="M15,7H9C8.447,7,8,7.447,8,8v7h2v7h2h2v-7h2V8C16,7.447,15.553,7,15,7z"
     id="path4" />
  <path
     style="fill:#ff7f2a;stroke-width:0.04741584"
     d="M 9.9990517,18.481745 V 14.996681 H 9.0033191 8.0075865 v -3.511483 c 0,-2.4043287 0.016504,-3.5770287 0.052346,-3.7193686 C 8.088723,7.6514926 8.184966,7.4730256 8.273806,7.3692359 8.5775007,7.0144371 8.4386449,7.0263724 12.08943,7.0412635 l 3.252066,0.013265 0.195866,0.1357542 c 0.122364,0.08481 0.240939,0.226204 0.315976,0.3767826 l 0.120109,0.2410284 v 3.5942933 3.594294 h -0.995732 -0.995733 v 3.485064 3.485064 H 11.990517 9.9990517 Z"
     id="path14"
     inkscape:connector-curvature="0" />
  <path
     style="fill:#ff0000;stroke-width:0.04741584"
     d="M 11.528244,5.9144076 C 10.957297,5.7606649 10.497372,5.3880868 10.231206,4.8636974 10.075711,4.5573462 10.070175,4.5276133 10.070175,3.9986829 c 0,-0.5037245 0.01065,-0.5694554 0.132541,-0.8176593 0.390132,-0.7944507 1.24196,-1.2612963 2.067038,-1.1328435 0.861331,0.1340968 1.525128,0.7917962 1.673726,1.6583492 0.174231,1.0160401 -0.521018,2.0062909 -1.564116,2.2277873 -0.322766,0.068538 -0.541676,0.063417 -0.85112,-0.019909 z"
     id="path16"
     inkscape:connector-curvature="0" />
  <path
     style="fill:#ff0000;stroke-width:0.04741584"
     d="M 9.9990517,18.481745 V 14.996681 H 8.9956717 7.9922918 L 8.021136,11.417446 C 8.0484964,8.0223232 8.0546703,7.8278114 8.1411588,7.6360331 8.2605237,7.3713554 8.4742144,7.1757614 8.7016765,7.1229836 8.8023832,7.0996168 10.333186,7.0799895 12.10346,7.0793673 c 3.101615,-0.00109 3.224082,0.00221 3.367223,0.090674 0.15861,0.098026 0.29737,0.2649441 0.424294,0.5103924 0.07098,0.1372714 0.07847,0.4934643 0.07847,3.7339973 v 3.58225 h -0.995732 -0.995733 v 3.485064 3.485064 H 11.990517 9.9990517 Z"
     id="path37"
     inkscape:connector-curvature="0" />
</svg>
